<?xml version="1.0" encoding="UTF-8"?><svg xmlns="http://www.w3.org/2000/svg" viewBox="0 0 527.07 714.61"><defs><style>.cls-1{fill:#ebebeb;}.cls-2{fill:#f5f5f5;}.cls-3{fill:#e0e0e0;}.cls-4{fill:#231f20;}.cls-5{fill:#414042;}.cls-6{fill:#363538;}.cls-7{fill:#4a494d;}.cls-8{fill:#58595b;}.cls-9{fill:#d9d9d9;mix-blend-mode:multiply;}.cls-10{fill:#1a1a1a;mix-blend-mode:screen;}.cls-11{isolation:isolate;}</style></defs><g class="cls-11"><g id="_이어_1"><g><circle class="cls-5" cx="29.36" cy="654.91" r="29.36"/><path class="cls-6" d="M485.56,611.41c-16.58,2.86-32.86,6.01-46.63,5.05-.95-.05-1.89-.13-2.84-.26h-.02c-11.15-1.3-20.46-5.68-26.64-15.66-1.51-2.44-3.11-5.95-4.73-10.4-.46-.79-.92-1.58-1.37-2.39l2.29-218.12-143.55-166.02-74.12,26.07-63.63,252.32,59.45,186.32,56.55,41.09c35.56,3.05,116.04,4.53,148.1,5.01,4.07,.1,8.2,.15,12.39,.17,.76,0,1.17,.01,1.17,.01h0c1.03,0,2.05,0,3.08,0,93.52,0,102.22,0,116.36-36.87,11.58-30.19,7.83-73.87-35.89-66.34Z"/><path class="cls-1" d="M134.85,217.23c-10.51,197.92-125.06,223.44-112.01,374.6,10.01,115.93,67.42,122.78,160.95,122.78s105.49-6.42,116.36-36.87c10.87-30.45,7.83-73.87-35.89-66.34-31.54,5.44-48.37,16.31-62.51-6.52-14.14-22.84-26.67-158.77,4.87-275.13,31.54-116.36,23.92-117.45,23.92-117.45l-95.7,4.93Z"/><ellipse class="cls-10" cx="499.51" cy="663.81" rx="46.65" ry="25.39" transform="translate(-268.77 979.88) rotate(-75.4)"/><path class="cls-7" d="M394.14,255.65c89.18,16.08,103.02,346.72,43.42,424.01-44.83,58.13-89.66,20.74-81.51-24.26,8.15-45,12-184.28-31.65-182.04-43.65,2.25-13.18,130.77-.96,183.35,12.23,52.58-44.83,67.12-73.36,34.41-41.21-47.24-86.45-97.63-92.66-254.23-5.66-142.95,39.87-178.21,39.87-178.21l66.38-55.08,161.66,5.24s-48.76,43.64-31.19,46.8Z"/><path class="cls-2" d="M423.3,268.79c8.79,50.67-81.48,119.77-102.53,120.26-28.24,.67-119.33-50.24-141.76-104.15-22.42-53.9,244.29-16.12,244.29-16.12Z"/><path class="cls-5" d="M183.78,714.61c93.52,0,102.22,0,116.36-36.87,11.58-30.19,7.83-73.87-35.89-66.34-16.58,2.86-32.86,6.01-46.63,5.05-.95-.05-1.89-.13-2.84-.26h-.02c-11.15-1.3-20.46-5.68-26.64-15.66-1.51-2.44-3.11-5.95-4.73-10.4-15.09-25.78-26.27-60.66-71.97-57.16-68.81,5.28-99.21,75.69-64,141.8,29.38,33.79,77.2,39.84,136.34,39.84Z"/><ellipse class="cls-10" cx="278.21" cy="663.81" rx="46.65" ry="25.39" transform="translate(-434.3 765.72) rotate(-75.4)"/><circle class="cls-5" cx="414.74" cy="40.07" r="40.07" transform="translate(16.23 161.76) rotate(-22.5)"/><circle class="cls-5" cx="174.93" cy="40.07" r="40.07" transform="translate(-2.02 69.99) rotate(-22.5)"/><circle class="cls-8" cx="179.01" cy="46.85" r="21.59"/><circle class="cls-8" cx="410.32" cy="46.85" r="21.59"/><ellipse class="cls-1" cx="295.71" cy="173.93" rx="188.45" ry="145.01"/><path class="cls-7" d="M321.29,142.67c-15.68-8.25-23.4-48.58,18.28-46.82,41.68,1.76,73.39,44.62,75.73,71.04,2.35,26.42-27.43,18.99-40.96,1.62-10.52-13.51-45.88-22.06-53.05-25.84Z"/><path class="cls-7" d="M273.18,142.19c15.68-8.25,23.4-48.58-18.28-46.82-41.68,1.76-73.39,44.62-75.73,71.04-2.35,26.42,23.61,20,40.96,1.62,11.76-12.45,45.88-22.06,53.05-25.84Z"/><circle class="cls-4" cx="351.48" cy="133.81" r="12.13"/><circle class="cls-4" cx="244.51" cy="133.81" r="12.13"/><ellipse class="cls-3" cx="295.71" cy="206.81" rx="98.42" ry="66.34"/><path class="cls-9" d="M323.73,218.94c-.76-1.64-2.7-2.35-4.33-1.6-4.42,2.04-8.17,2.1-11.15,.19-5.19-3.32-8.3-12.54-8.3-24.66,0-1.8-1.46-3.26-3.26-3.26-.17,0-.33,.02-.49,.05-.16-.02-.32-.05-.49-.05-1.8,0-3.26,1.46-3.26,3.26,0,12.12-3.1,21.34-8.3,24.66-2.98,1.91-6.73,1.84-11.15-.19-1.63-.76-3.57-.04-4.33,1.6-.76,1.64-.04,3.57,1.6,4.33,3.43,1.58,6.44,2.18,9.04,2.18,3.59,0,6.37-1.15,8.36-2.42,3.72-2.38,6.61-6.48,8.54-11.89,1.93,5.41,4.82,9.51,8.54,11.89,1.99,1.27,4.77,2.42,8.36,2.42,2.59,0,5.61-.6,9.04-2.18,1.64-.76,2.35-2.69,1.6-4.33Z"/><path class="cls-8" d="M295.71,192.88c-4.11-.29-32.29-21.13-32.18-27.59,.11-6.46,4.59-10.3,32.18-10.3s32.07,3.84,32.18,10.3c.11,6.46-28.07,27.3-32.18,27.59Z"/><path class="cls-9" d="M193.34,440.34c5.85,8.09,5.63,18.23-.49,22.66s-15.82,1.46-21.67-6.63c-5.85-8.09-5.63-18.23,.49-22.66,6.12-4.43,15.82-1.46,21.67,6.63Z"/><path class="cls-9" d="M59.88,546.07c-4.97,8.65-14.31,12.62-20.86,8.86-6.55-3.76-7.83-13.83-2.85-22.48,4.97-8.65,14.31-12.62,20.86-8.86,6.55,3.76,7.83,13.83,2.85,22.48Z"/><path class="cls-9" d="M192.84,346.96c-13.05-2.79-20.78,7.8-23.82,29.61-3.04,21.81-5.76,40.14,16.16,46.47,21.92,6.33,27.73-8.97,27.02-21.49-.71-12.52-6.63-21.75-8.02-33.11-1.39-11.36-5.72-20.28-11.34-21.48Z"/><path class="cls-9" d="M68.12,528.97c-6.37-8.04-1.71-16.96,12.27-26.48s25.67-17.63,37.49-4.7c11.82,12.94,3.27,22.14-5.59,25.92-8.86,3.78-17.23,2.84-25.52,5.75-8.29,2.91-15.9,2.97-18.65-.49Z"/><path class="cls-10" d="M439.59,484.35c-3.8,68.42-16.36,152.39-35.31,177.88-18.95,25.48-1.55,36.52,9.87,30.46s43.14-47.41,48.76-142.01c5.61-94.6,.72-133.21-6.35-144.63-7.07-11.42-13.4,14.12-16.97,78.3Z"/><path class="cls-9" d="M308.73,441.14c-58.88,34.28-11.63,132.06,5.42,174.16-12.48-59.68-24.22-140.16,10.24-141.94,38.74-1.99,40.06,107.49,34.17,163.61,1.17-3.96,2.34-8.37,3.52-13.3,23.52-98.84,6.92-217.62-53.35-182.53Z"/></g></g></g></svg>