<?xml version="1.0" encoding="UTF-8"?><svg xmlns="http://www.w3.org/2000/svg" viewBox="0 0 719.73 599.84"><defs><style>.cls-1{fill:#3e485e;}.cls-2{fill:#465069;}.cls-3{fill:#353c4f;}.cls-4{fill:#262d3b;}.cls-5{fill:#bfbfbf;}.cls-5,.cls-6,.cls-7{mix-blend-mode:multiply;}.cls-6{fill:#d1d1d1;}.cls-7{fill:#999;}.cls-8{fill:#121212;}.cls-8,.cls-9{mix-blend-mode:screen;}.cls-9{fill:#0d0d0d;}.cls-10{isolation:isolate;}</style></defs><g class="cls-10"><g id="_이어_1"><g><path class="cls-3" d="M498.25,153.72c22.25,35.38,25.81,92.24,1.79,136.11-4.57,8.34,5.6,17.06,13,11.1,61.7-49.75,76.09-138.08,67.26-191.48-2.27-13.75-17.9-20.62-29.44-12.8-14.48,9.81-33.41,22.35-46.92,31.27-8.57,5.65-11.15,17.11-5.69,25.8Z"/><path class="cls-3" d="M343.26,45.08c-74.05,5.02-118.8,9.53-176.36,38.79-7.65,3.89-5.78,15,2.67,16.45,38.29,6.58,59.39,49.22,51.9,84.93-9.96,47.49,121.79-140.17,121.79-140.17Z"/><path class="cls-1" d="M663.18,88.23c1.53-45.96-92.43-139.66-305.37-52.34C189.01,105.11,160.75,327.83,159.83,442.06c-.26,32.78-20.58,61.93-51.24,73.54-33.7,12.75-75.34,36.48-106.73,72.15-5.35,6.08,1.87,15.05,8.97,11.15,63.69-34.97,163.55-46.52,254.73-6.82,6.28,2.73,11.48-5.5,6.29-9.96-38.05-32.76-87.44-71.3-87.92-106.54-.77-55.92,37.53-152.43,141.71-185.37,104.17-32.94,156.26-63.58,227.5-100.34,71.24-36.77,147.83-34.47,164.69-58.21,3.83-10.72,2.3-21.45-8.43-21.45-16.09,1.53-46.21-21.96-46.21-21.96Z"/><path class="cls-6" d="M663.18,88.23c.14-4.12-.53-8.64-1.94-13.36-12.41,14.12-35.19,30.61-57.55,38.77,0,0,51.32-11.87,59.49-25.4Z"/><path class="cls-6" d="M706.57,113.82c-.99,1.06-2.21,2.27-3.59,3.62-1.64,1.14-3.19,2.7-5.3,3.91-1.97,1.37-4.29,2.55-6.73,3.79-2.51,1.1-5.14,2.29-8.01,3.17-2.81,1.04-5.85,1.67-8.9,2.46-3.1,.58-6.23,1.32-9.44,1.57-6.36,1.01-12.85,.98-18.94,1.11-3.05-.11-6-.23-8.8-.33-2.81-.22-5.46-.43-7.91-.62-4.88-.6-9.04-.88-11.89-1.44-2.88-.42-4.56-.58-4.56-.58,0,0,1.53,.68,4.26,1.73,2.73,1.07,6.69,2.47,11.59,3.76,4.9,1.24,10.73,2.29,17.06,2.87,3.18,.07,6.46,.5,9.82,.28,3.35-.08,6.76-.26,10.15-.71,3.4-.35,6.75-1.19,10.04-1.9,3.27-.87,6.44-1.9,9.42-3.17,3.03-1.09,5.75-2.74,8.31-4.21,2.52-1.58,4.79-3.23,6.69-5.02,2.05-1.57,3.41-3.62,4.81-5.13,1.19-1.77,2.19-3.3,2.95-4.56,1.19-2.67,1.8-4.23,1.8-4.23,0,0-1.07,1.29-2.83,3.63Z"/><path class="cls-5" d="M609.29,136.9c-2.75-6.69-.61-14.11,4.69-18.48-1.67-.15-3.37-.03-5.03,.65-5.54,2.28-8.18,8.62-5.9,14.15,1.39,3.37,4.32,5.47,7.61,6.24-.52-.81-1-1.65-1.37-2.57Z"/><path class="cls-7" d="M681.5,120.12c.14,.47-1.2,1.29-2.99,1.82-1.79,.53-3.35,.57-3.49,.1-.14-.47,1.2-1.29,2.99-1.82,1.79-.53,3.35-.57,3.49-.1Z"/><path class="cls-8" d="M622.84,80.09c0,16.86-13.67,30.53-30.53,30.53s-30.53-13.67-30.53-30.53,13.67-30.53,30.53-30.53,30.53,13.67,30.53,30.53Z"/><path class="cls-4" d="M587.48,92.32c4.47-6.89,15.45-10.98,17.87-10.98,5.23,2.55,7.92,9.83,7.92,9.83-1.02,0-3.32-.51-3.32-.51-2.81,3.06-10.34,5.36-22.47,1.66Z"/><path class="cls-2" d="M623.4,163.8c-154.98-2.76-448.38,66.9-439.47,311.77-.77-55.92,37.53-152.43,141.71-185.37,104.17-32.94,156.26-63.58,227.5-100.34,23.63-12.19,47.83-20.08,70.26-26.06Z"/><path class="cls-3" d="M410.7,181.49c7.96,41.03-9.27,95.33-47.52,127.56-7.27,6.13-.94,17.94,8.11,15.05,75.51-24.09,120.85-101.25,131.92-154.22,2.85-13.64-9.24-25.69-22.83-22.58-17.04,3.91-39.23,8.77-55.05,12.2-10.03,2.17-16.58,11.92-14.63,22Z"/><path class="cls-9" d="M480.38,147.3c-3.86,.88-8,1.82-12.25,2.78,9.63,2.68,16.41,12.54,14.14,23.4-10.3,49.3-49.01,118.6-113.06,151.02,.68-.05,1.37-.16,2.08-.39,75.51-24.09,120.85-101.25,131.92-154.22,2.85-13.64-9.24-25.69-22.83-22.58Z"/><path class="cls-9" d="M444.59,64.21c12.9,0,25.5,1.22,37.76,3.44-23.65-12.23-50.47-19.19-78.93-19.19-95.04,0-172.08,77.04-172.08,172.08,0,11.96,1.22,23.62,3.54,34.89,9.8-107.23,99.92-191.23,209.71-191.23Z"/></g></g></g></svg>