<?xml version="1.0" encoding="UTF-8"?><svg xmlns="http://www.w3.org/2000/svg" viewBox="0 0 830.75 645.42"><defs><style>.cls-1{fill:#fa9e42;}.cls-2{fill:#fab842;}.cls-3,.cls-4{fill:#ffd6a1;}.cls-5{fill:#f93;}.cls-6{fill:#ff9640;}.cls-7,.cls-8{fill:#ff8b00;}.cls-9{fill:#0d0d0d;}.cls-10{fill:#454647;}.cls-11{fill:#9f9f9f;}.cls-11,.cls-12,.cls-8,.cls-13{mix-blend-mode:multiply;}.cls-12{fill:#ff9700;}.cls-13{fill:#fa9640;}.cls-4,.cls-14{mix-blend-mode:screen;}.cls-15{isolation:isolate;}</style></defs><g class="cls-15"><g id="_이어_1"><g><path class="cls-1" d="M146.84,189.43c-32.47,63.33-36.53,180.37-40.18,208.91-3.65,28.54-90.86,43.42-102.59,79.88-16.32,50.75,19.52,67.4,53.22,70.71,33.7,3.31,46.19-29.82,49.27-41.96,3.08-12.14,27.1-22.35,67.02-31.7,66.49-15.57,55.86-56.62,55.86-56.62l-15.28-200.5-67.3-28.72Z"/><path class="cls-6" d="M146.84,189.43c-32.47,63.33-36.53,180.37-40.18,208.91-3.65,28.54-90.86,43.42-102.59,79.88-16.32,50.75,19.52,67.4,53.22,70.71,33.7,3.31,46.19-29.82,49.27-41.96,3.08-12.14,27.1-22.35,67.02-31.7,66.49-15.57,55.86-56.62,55.86-56.62l-15.28-200.5-67.3-28.72Z"/><g><path class="cls-2" d="M324.9,181.6c75.17,35.68,156.19,67.5,259.75,37.2,103.55-30.3,175.83,.49,216.35,71.2,40.52,70.71,60.72,195.13-138.78,195.48-199.5,.35-336.52,17.19-421.84-24.42-100.71-49.11-61.82-249.32-61.82-249.32l146.35-30.15Z"/><path class="cls-8" d="M324.9,181.6c75.17,35.68,156.19,67.5,259.75,37.2,103.55-30.3,175.83,.49,216.35,71.2,40.52,70.71,60.72,195.13-138.78,195.48-199.5,.35-336.52,17.19-421.84-24.42-100.71-49.11-61.82-249.32-61.82-249.32l146.35-30.15Z"/></g><path class="cls-1" d="M317.06,169.36c-.69-2.14,1.96-3.78,3.56-2.19,34.49,34.38,76.95,90.25,76.29,175.75-.7,90.72-20.42,155.45-86.37,176.39s-56.83,6.97-93.67,38.01c-36.84,31.04-105.73,4.36-105.1-30.83,.89-49.24,50.14-65.12,93.67-77.74,43.53-12.62,71.7-18.08,55.82-119.73-15.88-101.65-81.06-126.48-81.06-126.48l119.94-31.64,16.92-1.56Z"/><path class="cls-13" d="M499.47,345.61c11.76,82.27,80.61,135.99,80.61,135.99,0,0,16.39-142.75,17.78-155.2,1.39-12.45-21.48-105.24-21.48-105.24h-.04c-1.4,.4-2.78,.78-4.15,1.16-32.71,9.86-83.99,44.47-72.72,123.28Z"/><path class="cls-1" d="M685.97,208.63c-120.71-15.6-153.27,36.31-159.93,111.45-6.66,75.14,57.59,145.77,55.35,152.07-2.24,6.29-105.38-11.87-120.6,10.83-15.22,22.71-32.29,45.45,91.32,40.25,123.61-5.21,119.79-35.31,146.94-39.25,27.15-3.93,84.21-8.79,115.27-54.84,31.05-46.04-2.81-124.08-15.92-143.4-13.11-19.32-42.85-68.12-112.42-77.12Z"/><path class="cls-1" d="M685.97,208.63c-120.71-15.6-153.27,36.31-159.93,111.45-6.66,75.14,57.59,145.77,55.35,152.07-2.24,6.29-105.38-11.87-120.6,10.83-15.22,22.71-32.29,45.45,91.32,40.25,123.61-5.21,119.79-35.31,146.94-39.25,27.15-3.93,84.21-8.79,115.27-54.84,31.05-46.04-2.81-124.08-15.92-143.4-13.11-19.32-42.85-68.12-112.42-77.12Z"/><path class="cls-13" d="M814.31,429.15c27.29-40.47,4.44-105.64-10.39-133.95-.47-.36-.73-.55-.73-.55,22.81,70.56,.73,137.92-48.28,151.21-49.01,13.29-64.73,6.29-85.8,29.44-21.07,23.15-27.13,30.8-99.1,31.01-44.61,.13-55.45,8.45-53.95,17.66,10.42,.07,22.37-.16,36.05-.74,123.61-5.21,119.79-35.31,146.94-39.25,27.15-3.93,84.21-8.79,115.27-54.84Z"/><path class="cls-1" d="M825.74,357.26c7.33,47.29,23.03,154.14-95.63,174.86s-298.21,1.38-351.61,32.45c-53.4,31.08-15.01,76.1-66.77,80.71-51.76,4.6-32.3-102.77,53.17-127.97,85.47-25.2,181.05-14.99,262.41-21.04,81.36-6.05,135.53-8.32,165.68-48.65,38.41-51.37,32.75-90.37,32.75-90.37Z"/><path class="cls-13" d="M825.74,357.26c7.33,47.29,23.03,154.14-95.63,174.86s-298.21,1.38-351.61,32.45c-53.4,31.08-15.01,76.1-66.77,80.71-51.76,4.6-32.3-102.77,53.17-127.97,85.47-25.2,181.05-14.99,262.41-21.04,81.36-6.05,135.53-8.32,165.68-48.65,38.41-51.37,32.75-90.37,32.75-90.37Z"/><g class="cls-14"><path class="cls-9" d="M830.73,407.91c-.76,36.62-16.35,92.39-80.68,112.8-76,24.11-314.72,5.77-359.84,16.63-45.12,10.86-57.5,33.46-58.51,66.24-1.01,32.78-33.95,46.51-46.24,25.29,3.8,10.94,12.52,17.62,26.27,16.4,51.76-4.6,13.36-49.63,66.77-80.71,53.4-31.08,232.95-11.74,351.61-32.45,85.37-14.9,101.19-74.39,100.62-124.2Z"/><path class="cls-9" d="M829.88,390.2c-.06-.69-.11-1.37-.17-2.05,.04,.68,.09,1.36,.17,2.05Z"/></g><g><path class="cls-1" d="M179.12,45.83c-.95,22.71-20.14,40.35-42.85,39.4-22.71-.95-44.59-24.5-43.64-47.22C93.58,15.3,113.63-.91,136.35,.04c22.71,.95,43.72,23.07,42.77,45.79Z"/><path class="cls-11" d="M167.47,47.85c-.64,15.31-13.57,27.2-28.89,26.56-15.31-.64-29.48-17.58-28.84-32.89s13.57-27.2,28.89-26.56,29.48,17.58,28.84,32.89Z"/><path class="cls-1" d="M289.32,50.45c-.95,22.71,16.69,41.9,39.4,42.85,22.71,.95,46.49-20.69,47.44-43.4,.95-22.71-17.68-40.54-40.39-41.5-22.71-.95-45.5,19.33-46.45,42.04Z"/><path class="cls-11" d="M300.76,53.44c-.64,15.31,11.25,28.24,26.56,28.89,15.31,.64,30.85-15.05,31.49-30.36s-11.25-28.24-26.56-28.89-30.85,15.05-31.49,30.36Z"/><path class="cls-7" d="M130.79,73.98c-6.84,6.38-18.19,10.78-24.67,26.52-9.97,24.2-10.96,34.04-4.12,27.6,1.19-1.12-4.53,7.83-2.95,21.65s2.43,3.46,4.16,1.98c1.73-1.49-1.26,5.68,.87,22.97,2.13,17.29,4.29,6.37,4.68,5.69,.39-.68-3.32,14.88-.54,26.38,2.78,11.5,4.83,5.61,5.22,1.45,.31-3.36,1.7,5.38,6.15,15.88,4.45,10.5,8.54,14.77,8.8,8.42s-.34-2.41,5.78,8.56c6.12,10.98,4.91,5.88,5.36,2.14s.95,6,10.59,13.21c14.22,10.65,10.06,3.59,8.35-3.1-1.3-5.12,3.05,10.67,17.8,14.02,11.25,2.55,2.13-12.29,2.13-12.29l-47.6-181.06Z"/><path class="cls-7" d="M320.65,81.94c6.28,6.93,17.22,12.27,22.37,28.49,7.91,24.95,8.07,34.84,1.79,27.84-1.09-1.22,3.86,8.18,1.13,21.82-2.73,13.64-2.71,3.25-4.31,1.62s.78,5.77-2.79,22.82c-3.57,17.05-4.81,5.99-5.14,5.28-.33-.71,2.06,15.1-1.67,26.33-3.73,11.23-5.29,5.19-5.32,1.01-.03-3.38-2.14,5.22-7.46,15.31-5.32,10.09-9.74,14-9.47,7.65,.27-6.35,.54-2.38-6.48,8.05-7.02,10.42-5.39,5.45-5.52,1.69-.13-3.76-1.45,5.9-11.66,12.28-15.06,9.42-10.32,2.74-8.06-3.79,1.73-4.99-3.93,10.38-18.91,12.48-11.42,1.6-1.09-12.43-1.09-12.43l62.59-176.44Z"/><path class="cls-1" d="M174.8,247.4c2.5,15.05,12.31,23.52,44.33,25.74,32.02,2.22,40.85-2.48,47.32-19.16,4.77-12.3-43.51-35.84-43.51-35.84l-48.14,29.25Z"/><path class="cls-1" d="M165.38,239.08c3.25,15.1,15.09,30.47,53.9,33.16,38.81,2.69,49.59-8.63,57.18-25.23,5.6-12.24-53.35-33.22-53.35-33.22l-57.73,25.29Z"/><path class="cls-1" d="M220.97,234.58s-6.47,34.11-45.68,15.58c-29.24-13.82-39.24-31.89-45.82-42.51-14.88-24.03-13.63-37.3-9.52-84.3,1.26-14.46,.72-27.58,5.34-53.43S138.33,6.65,196.49,14.76c15.02,2.09,24.22,3.11,35.01,3.06,10.75,.96,18.38,.64,33.52-.19,58.63-3.21,62.45,34.72,64.89,60.87,2.44,26.15,3.14,36.93,4.08,57.82,2.05,45.61-5.24,64.26-18.98,80.34-8.12,9.5-26.01,31.88-48.57,37.33-42.16,10.18-45.47-19.4-45.47-19.4Z"/><path class="cls-4" d="M266.44,253.98h0c1.83-.7,3.57-1.2,5.23-1.6,7.43-2.7,14.27-7.09,20.32-12.01,2.68-29.75-29.43-34.49-42.91-31.37l-27.03-1.13-1.08,26.7s.21,1.42,.85,3.54c2.47,7.53,11.71,23.8,44.62,15.86Z"/><path class="cls-4" d="M221.57,234.6l1.16-26.69-27.03-1.13c-12.56-4.05-44.18-2.08-46.02,26.67,6.39,5.76,14.64,11.54,25.6,16.72,28.16,13.31,39.43-.53,43.55-9.39,1.61-3.48,2.13-6.19,2.13-6.19,0,0,.14,.94,.53,2.42,.08-1.49,.07-2.4,.07-2.4Z"/><path class="cls-12" d="M265.02,17.63c-15.14,.83-22.77,1.14-33.52,.19-10.79,.05-19.99-.96-35.01-3.06-58.16-8.11-66.59,29.31-71.21,55.16-1.68,9.42-2.68,17.14-3.33,23.86-.77,9.82-.93,17.67-1.64,25.93-.1,1.22-.21,2.41-.31,3.59,4.3-1.08,10.13-5.24,15.06-12.84,19.43-29.9,45.18-13.77,55.47,1.46,10.29,15.22,1.51,62.75-1.23,93.35l68.25,2.95c-.17-30.73-5.25-78.93,6.27-93.24,11.53-14.31,40.78-19.57,51.86-1.59,5.09,8.26,11.98,14.42,18.08,18.38-.85-18.06-1.62-29.1-3.87-53.29-2.44-26.15-6.26-64.08-64.89-60.87Z"/><g><circle class="cls-10" cx="273.18" cy="129.6" r="13.08" transform="translate(-27.57 160.76) rotate(-31.3)"/><path class="cls-10" d="M273.57,116.54c12.8-1.49,24.28,6.05,22.75,8.82-1.53,2.77-4.46-4.78-14.14-5.23-9.68-.45-8.61-3.58-8.61-3.58Z"/></g><g><circle class="cls-10" cx="179.02" cy="125.76" r="13.08" transform="translate(-36.49 163.42) rotate(-45)"/><path class="cls-10" d="M179.7,112.71c-12.63-2.53-24.69,4.05-23.39,6.93s4.84-4.4,14.52-4.06c9.68,.34,8.87-2.87,8.87-2.87Z"/></g><g><path class="cls-10" d="M221.32,235.7c-.12,.43-.74,.36-.78-.08-3.08-38.44-31.68-21.86-31.12-28.39,.58-6.66,5.47-10.31,33.98-8.34,28.51,1.97,32.86,6.27,32.51,12.95-.34,6.55-24.01-13.66-34.6,23.87Z"/><path class="cls-10" d="M255.82,213.12c-.23,3.26-3.05,5.72-6.31,5.49-3.26-.23-8.65-1.02-8.43-4.28,.23-3.26,5.98-7.75,9.24-7.52,3.26,.23,5.72,3.05,5.49,6.31Z"/><path class="cls-10" d="M204.78,211.56c-.23,3.26-6.69,3.49-9.95,3.27s-5.72-3.05-5.49-6.31c.23-3.26,3.05-5.72,6.31-5.49,3.26,.23,9.36,5.28,9.14,8.53Z"/></g><g class="cls-14"><path class="cls-3" d="M262.31,218.38c.02,1.15-.9,2.1-2.05,2.12-1.15,.02-2.1-.9-2.12-2.05-.02-1.15,.9-2.1,2.05-2.12,1.15-.02,2.1,.9,2.12,2.05Z"/><path class="cls-3" d="M249.19,227.96c.02,1.15-.9,2.1-2.05,2.12s-2.1-.9-2.12-2.05c-.02-1.15,.9-2.1,2.05-2.12,1.15-.02,2.1,.9,2.12,2.05Z"/><path class="cls-3" d="M258.51,238.94c.02,1.15-.9,2.1-2.05,2.12-1.15,.02-2.1-.9-2.12-2.05-.02-1.15,.9-2.1,2.05-2.12,1.15-.02,2.1,.9,2.12,2.05Z"/><path class="cls-3" d="M271.2,229.65c.02,1.15-.9,2.1-2.05,2.12-1.15,.02-2.1-.9-2.12-2.05-.02-1.15,.9-2.1,2.05-2.12,1.15-.02,2.1,.9,2.12,2.05Z"/><path class="cls-3" d="M192.15,221.09c.02,1.15-.9,2.1-2.05,2.12s-2.1-.9-2.12-2.05c-.02-1.15,.9-2.1,2.05-2.12,1.15-.02,2.1,.9,2.12,2.05Z"/><path class="cls-3" d="M179.03,230.67c.02,1.15-.9,2.1-2.05,2.12-1.15,.02-2.1-.9-2.12-2.05-.02-1.15,.9-2.1,2.05-2.12,1.15-.02,2.1,.9,2.12,2.05Z"/><path class="cls-3" d="M188.35,241.65c.02,1.15-.9,2.1-2.05,2.12s-2.1-.9-2.12-2.05c-.02-1.15,.9-2.1,2.05-2.12,1.15-.02,2.1,.9,2.12,2.05Z"/><path class="cls-3" d="M201.04,232.36c.02,1.15-.9,2.1-2.05,2.12-1.15,.02-2.1-.9-2.12-2.05-.02-1.15,.9-2.1,2.05-2.12,1.15-.02,2.1,.9,2.12,2.05Z"/></g><path class="cls-10" d="M196.49,14.76c-3.46-.48-6.73-.79-9.84-.96l20.82,62.07c1.45,4.31,7.79,3.41,7.98-1.13l2.41-57.44c-6.15-.5-12.81-1.34-21.36-2.53Z"/><path class="cls-10" d="M265.02,17.63c-8.12,.44-14.07,.74-19.51,.77l-2.41,57.49c-.19,4.54,6.05,5.97,7.85,1.8l25.94-60.1c-3.69-.18-7.62-.19-11.87,.05Z"/><path class="cls-10" d="M233.56,69.5l9.54-51.11c-3.8-.04-7.47-.21-11.59-.58-3.87,.02-7.53-.1-11.33-.36l5.28,51.71c.48,4.71,7.23,4.99,8.1,.34Z"/><path class="cls-10" d="M333.63,168.19c.4-4.64,.64-9.7,.69-15.23l-30.28,3.54c-1.84,.22-2.05,2.81-.26,3.31l29.86,8.37Z"/><path class="cls-10" d="M329.57,190.54c1.31-4.27,2.36-8.99,3.14-14.31l-28.38-2.88c-1.85-.19-2.61,2.3-.97,3.18l26.21,14.01Z"/><path class="cls-10" d="M320.31,209.8c2.34-3.39,4.41-7,6.2-11.03l-22.31-8.32c-1.74-.65-3.1,1.57-1.74,2.83l17.85,16.52Z"/><path class="cls-10" d="M118.18,144.53c-.38,5.02-.66,9.57-.81,13.73l24.15-4.64c2.39-.46,2.41-3.87,.02-4.35l-23.37-4.74Z"/><path class="cls-10" d="M118.4,180.49l22.31-9.62c2.23-.96,1.51-4.3-.92-4.26l-22.54,.39c.08,4.93,.43,9.33,1.15,13.49Z"/><path class="cls-10" d="M125.21,200.19l15.34-11.97c1.92-1.5,.38-4.54-1.96-3.89l-17.99,5.04c1.17,3.58,2.69,7.12,4.62,10.82Z"/></g><path class="cls-10" d="M393.21,298.72c-.12-.67-.25-1.33-.37-1.99-.27-1.44-.56-2.87-.86-4.29-.15-.71-.29-1.42-.45-2.12-.39-1.79-.81-3.56-1.24-5.32-.25-1.02-.52-2.04-.78-3.05-.21-.81-.42-1.62-.64-2.43-.32-1.17-.64-2.34-.98-3.5-.12-.42-.25-.84-.38-1.27-.81-2.74-1.67-5.45-2.56-8.11v-.02c-17.93-5.9-53.73,14.76-69.31,24.62-1.88,1.19-.88,4.11,1.34,3.89,17.5-1.73,56.53-3.71,77.28,9.83-.32-2.11-.68-4.19-1.05-6.25Z"/><path class="cls-10" d="M328.82,342.39c16.02,3.42,49.93,12.3,67.15,29.02,.56-9.19,.87-18.68,.95-28.49,.03-3.34-.04-6.63-.14-9.88-17.89-6.48-52.03,1.04-68.04,5.23-2.16,.56-2.1,3.65,.08,4.12Z"/><path class="cls-10" d="M327.55,390.91c14.85,8.77,46.58,29.57,56.04,52.24,4.16-12.49,7.21-26.21,9.33-41.03-15.84-10.66-48.37-14.08-64.16-15.14-2.23-.15-3.14,2.8-1.21,3.93Z"/><path class="cls-10" d="M121.42,272.57c11.9-.25,22.93,.59,30.23,1.36,2.22,.23,3.25-2.68,1.37-3.89-6.61-4.25-16.87-10.48-27.86-15.79-1.35,6.05-2.59,12.18-3.74,18.31Z"/><path class="cls-10" d="M143.34,316.75c-6.86-1.85-17.06-4.33-27.89-6.07-.82,6.25-1.56,12.38-2.22,18.33,11.54-4,22.65-6.63,30-8.14,2.19-.45,2.28-3.53,.12-4.12Z"/><path class="cls-10" d="M137.43,369.83c-6.98-.61-17.26-1.26-28.05-1.09-.65,7.58-1.19,14.25-1.69,19.72,11.42-6.59,22.89-11.58,30.34-14.55,2.07-.83,1.62-3.88-.6-4.07Z"/><path class="cls-10" d="M370.79,471.7c-9.87-16.35-37.27-33.33-50.9-41.08-1.94-1.1-4.04,1.16-2.81,3.01,9.11,13.67,27.25,43.85,27.79,67.88,10.43-8.14,18.99-18.13,25.92-29.81Z"/><path class="cls-10" d="M392.86,269.15c2.89,15.22,4.62,27.24,5.65,36.4,.57,5.03,7.66,5.51,8.93,.62,5.91-22.78,11.12-59.01-2.6-91.61-16.94-5.47-33.37-11.98-49.46-19,16.08,15.34,29.45,31.42,37.47,73.59Z"/><path class="cls-10" d="M446.61,283.95c2.9,15.23,4.63,27.25,5.66,36.41,.56,5.01,7.65,5.52,8.92,.65,6.04-23.23,11.35-60.5-3.44-93.62-13.95-2.19-27.51-5.31-40.75-9.12,12.56,13.56,22.94,30.59,29.61,65.68Z"/><path class="cls-10" d="M545.19,251.69c5.18,28.81,21.38,53.46,34.01,69.03,3.19,3.93,9.45,.55,7.87-4.26-2.86-8.75-6.27-20.4-9.96-35.44-6.32-25.82-6.62-43.39-3.97-57.92-11.91,7.47-21.02,17.15-27.95,28.6Z"/><path class="cls-10" d="M650.89,205.91c-11.88-.22-22.68,.38-32.48,1.76-7.17,35.74,3.24,71.67,12.13,93.7,1.89,4.68,8.84,3.31,8.78-1.73-.13-10.38,.15-24.5,1.44-42.87,1.55-22.16,5.14-38.16,10.14-50.86Z"/><path class="cls-10" d="M716.54,249.36c4.97-10.89,9.87-19.89,14.76-27.47-8.12-3.93-17.11-7.28-27.05-9.79-11.54,26.92-13.41,55.82-12.92,75.45,.12,5.04,7.12,6.19,8.83,1.44,3.52-9.77,8.74-22.89,16.38-39.64Z"/><path class="cls-10" d="M778.31,258.51c-11.42,15.28-19.36,31.3-24.51,43.77-1.92,4.65,4.02,8.52,7.49,4.88,7.17-7.51,17.25-17.39,31.03-29.61,.11-.1,.22-.19,.33-.29-3.79-5.51-8.5-11.99-14.34-18.74Z"/><path class="cls-10" d="M488.38,261.76c2.25,14.65,3.64,26.21,4.51,35.01,.47,4.82,5.33,5.44,6.12,.77,2.82-16.83,5.22-41.4,1.54-66.26-6.43,.06-12.74-.34-18.94-1.14,2.54,8.58,4.82,18.87,6.77,31.62Z"/></g><path class="cls-5" d="M75.53,453.87c1.93,0,1.93-3,0-3s-1.93,3,0,3h0Z"/><path class="cls-5" d="M75.53,453.87c1.93,0,1.93-3,0-3s-1.93,3,0,3h0Z"/><path class="cls-5" d="M75.53,455.45c1.93,0,1.93-3,0-3s-1.93,3,0,3h0Z"/><path class="cls-5" d="M75.53,457.04c1.93,0,1.93-3,0-3s-1.93,3,0,3h0Z"/><path class="cls-5" d="M75.53,457.04c1.93,0,1.93-3,0-3s-1.93,3,0,3h0Z"/></g></g></svg>