<?xml version="1.0" encoding="UTF-8"?><svg id="_이어_1" xmlns="http://www.w3.org/2000/svg" viewBox="0 0 718.2 514.93"><defs><style>.cls-1{fill:#f2f2f2;}.cls-2{fill:#030303;}.cls-3{fill:#ebebeb;}.cls-4{fill:#ededed;}.cls-5{fill:#fff;}.cls-6{fill:#e8e8e8;}.cls-7{fill:#c2c2c2;}.cls-8{fill:#c7c7c7;}.cls-9{fill:#c4c4c4;}.cls-10{fill:#d6d6d6;}.cls-11{fill:#adadad;}.cls-12{fill:#212121;}.cls-13{fill:#1c1c1c;}.cls-14{fill:#878787;}.cls-15{fill:#262626;}.cls-16{fill:#2e1c17;}.cls-17{fill:#52312b;}</style></defs><path class="cls-11" d="M382.36,514.9c-1.95-16.75-16.22-29.74-33.5-29.74s-31.55,13.02-33.5,29.77h66.96l.04-.04Z"/><path class="cls-7" d="M401.03,514.9c-1.95-16.75-16.22-29.74-33.5-29.74s-31.55,13.02-33.5,29.77h66.96l.04-.04Z"/><path class="cls-10" d="M495.31,291.27l-142.23,28.57,15.86,30.48c20.33,63.48,15.58,122.39-1.42,134.85,3.69-.04,9.19,.85,12.35,2.41-11.25,4.51-19.48,14.9-20.94,27.36h66.96v-.11c-.5-4.12,1.28-8.23,4.9-10.22,23.63-13.09,30.98-43.22,32.11-77.47,1.28-38.11,36.83-99.04,73.67-110.47,36.83-11.43-41.27-25.41-41.27-25.41h0Z"/><path class="cls-3" d="M710.57,514.76c7.31-30.8,7.63-76.76,7.63-111.74,0-122.28-39.11-235.41-105.46-327.6l-128.35,201.13c79.17,52.02,142.51,126.19,181.23,213.7l45,24.52h-.04Z"/><g><path class="cls-10" d="M173.17,99.89C86.8,109.69,24.73,187.61,34.53,273.99c1.03,9.12,2.84,17.99,5.32,26.51l.46,4.65c2.7,23.67-3.48,46.31-15.83,64.62l-.75,.43c-14.69,15.01-23.74,35.52-23.74,58.2,0,11,2.13,21.54,6.03,31.16l.25-.11c-2.55,3.8-4.08,8.37-4.08,13.31,0,7.38,3.37,13.98,8.66,18.38,30.73,.14,58.73-33.32,55.36-50.89,0-15.44,8.91-28.89,22.29-34.56l.89-.25c27.61-3.26,50.5-21.89,59.9-47.13l.39-.64c15.93-43.97,58.05-75.37,107.49-75.37L173.14,99.82l.04,.07Z"/><path class="cls-6" d="M18.84,465.22c-1.28-3.05-2.2-6.17-2.84-9.3-.32,7.06,.82,14.34,3.76,21.29,1.7,4.12,3.97,7.81,6.56,11.18,2.66-.92,5.25-2.02,7.74-3.3-6.49-5.04-11.82-11.78-15.22-19.91v.04Z"/><path class="cls-6" d="M37.86,455.07c-1.28-3.05-2.2-6.17-2.84-9.3-.32,7.06,.82,14.34,3.76,21.29,1.67,3.97,3.83,7.56,6.32,10.82,1.99-1.6,3.87-3.23,5.64-4.97-5.39-4.79-9.87-10.79-12.85-17.88l-.04,.04Z"/></g><path class="cls-3" d="M468.41,0c-12.31,0-24.13,1.06-35.56,4.54l-.64,.5c-39.21,17.85-82.79,27.79-128.67,27.79-18.1,0-35.45-1.7-52.7-4.68l-1.28-.18c-22.29,0-42.94,6.78-60.11,18.35L79.42,116.43l46.56,93.97,102.45,23.7,132.93,99.04,.18,.25c38.64-13.13,80.06-20.23,123.1-20.23,27.15,0,53.65,2.84,79.2,8.2l.89-.57c47.34-31.3,78.53-84.95,78.53-145.95C643.25,78.28,564.97,0,468.41,0h0Z"/><path class="cls-1" d="M365.57,229.45l-1.38,103.09c37.86-12.56,78.35-19.38,120.44-19.38,17.49,0,34.71,1.31,51.6,3.58l.35-.07s-122.75-23.7-171.01-87.19v-.04Z"/><path class="cls-8" d="M248.12,514.9c-1.6-13.66-13.24-24.27-27.32-24.27s-25.73,10.61-27.32,24.31h54.65v-.04Z"/><path class="cls-10" d="M263.38,514.9c-1.6-13.66-13.24-24.27-27.32-24.27s-25.73,10.61-27.32,24.31h54.65v-.04Z"/><path class="cls-3" d="M283.67,514.9c-1.6-13.66-13.24-24.27-27.32-24.27s-25.73,10.61-27.32,24.31h54.65v-.04Z"/><path class="cls-8" d="M666.81,514.9c-1.95-16.75-16.22-29.74-33.5-29.74s-31.55,13.02-33.5,29.77h66.96l.04-.04Z"/><path class="cls-10" d="M685.48,514.9c-1.95-16.75-16.22-29.74-33.5-29.74s-31.55,13.02-33.5,29.77h66.96l.04-.04Z"/><path class="cls-3" d="M710.39,514.9c-1.95-16.75-16.22-29.74-33.5-29.74s-31.55,13.02-33.5,29.77h66.96l.04-.04Z"/><path class="cls-3" d="M238.68,491.51c4.36-18.49,6.67-37.76,6.67-57.59,0-98.76-57.42-184.1-140.67-224.48l263.06-23.81c11.46,31.44,17.71,65.36,17.71,100.78,0,78.18-30.52,149.25-80.3,201.91-3.97,4.22-8.87,7.35-14.12,9.76-4.15,1.88-8.69,5.82-7.81,13.98,.11,1.06,.11,1.7,.32,2.73h-44.61l-.28-23.28h.04Z"/><path class="cls-5" d="M188.07,168.38c3.69,10.54,18.56,10.36,22.14-.21,1.6-4.76,2.87-9.72,3.76-14.83,1.56-9.05,1.74-17.96,.78-26.65-.57-5.18-4.79-9.23-9.97-9.69-11.57-.99-22.89,.11-33.6,2.98l16.89,48.4Z"/><path class="cls-9" d="M194.11,158.98c0-12.1,5.64-22.82,14.41-29.81-14.58,5.36-24.98,19.3-24.98,35.73l10.57-5.93Z"/><path class="cls-10" d="M40.56,170.08c-3.69,10.54-18.56,10.36-22.14-.21-1.6-4.76-2.87-9.72-3.76-14.83-1.56-9.05-1.74-17.96-.78-26.65,.57-5.18,4.79-9.23,9.97-9.69,11.57-.99,22.89,.11,33.6,2.98l-16.89,48.4Z"/><path class="cls-9" d="M34.49,160.64c0-12.1-5.64-22.82-14.41-29.81,14.58,5.36,24.98,19.3,24.98,35.73l-10.57-5.93Z"/><path class="cls-3" d="M190.59,145.49c-3.48-16.15-16.54-29.1-32.79-32.29-7.56-1.49-14.87-.96-21.47,1.17-13.77,4.44-28.35,4.33-42.19,.21-6.42-1.92-13.48-2.34-20.79-.85-14.41,2.87-26.33,13.45-31.19,27.11-8.98,13.66-14.19,30.02-14.19,47.59,0,48.05,38.96,86.98,86.98,86.98s86.98-38.96,86.98-86.98c0-15.61-4.15-30.23-11.36-42.9l.04-.04Z"/><rect class="cls-6" x="100.03" y="279.77" width="29.2" height="13.27" rx="4.61" ry="4.61"/><path class="cls-5" d="M153.12,229.52c11.82-1.31,20.62-12.67,17.6-25.37-1.7-7.13-7.38-12.95-14.51-14.76-8.02-2.06-15.47,.64-20.3,5.82-2.59,2.8-6.81,3.3-10.04,1.24-3.16-1.99-6.88-3.16-10.89-3.16l-24.34,38.25,24.34,56.53h13.02c7.06,0,13.34-4.44,15.68-11.07,1.03-2.87,2.09-5.82,3.02-8.13,1.03-2.52,.32-5.29-1.42-7.35-2.98-3.55-4.79-8.16-4.79-13.17,0-8.52,5.22-15.76,12.6-18.88l.04,.04Z"/><path class="cls-5" d="M76.72,229.52c-11.82-1.31-20.62-12.67-17.6-25.37,1.7-7.13,7.38-12.95,14.51-14.76,8.02-2.06,15.47,.64,20.3,5.82,2.59,2.8,6.81,3.3,10.04,1.24,3.16-1.99,6.88-3.16,10.89-3.16v94.78h-13.02c-7.06,0-13.34-4.44-15.68-11.07-1.03-2.87-2.09-5.82-3.02-8.13-1.03-2.52-.32-5.29,1.42-7.35,2.98-3.55,4.79-8.16,4.79-13.17,0-8.52-5.22-15.76-12.6-18.88l-.04,.04Z"/><path class="cls-6" d="M109.19,197.76h11.04c7.06,0,12.81,5.75,12.81,12.81v50.6c0,2.52-2.02,4.54-4.54,4.54h-27.57c-2.52,0-4.54-2.02-4.54-4.54v-50.6c0-7.06,5.75-12.81,12.81-12.81h0Z"/><g><path class="cls-9" d="M111.43,249.75h6.39c4.08,0,7.42,3.3,7.42,7.42v5.46h-21.18v-5.46c0-4.08,3.3-7.42,7.42-7.42h-.04Z"/><path class="cls-9" d="M127.25,260.54c2.31,2.8,3.69,6.35,3.69,10.26,0,8.87-7.2,16.08-16.08,16.08s-16.08-7.2-16.08-16.08c0-3.55,1.14-6.85,3.09-9.51l25.37-.78v.04Z"/><path class="cls-13" d="M129.13,265.4c.04-.32,.11-.64,.11-.96,0-4.05-3.3-7.35-7.35-7.35-1.42,0-2.8,.39-3.97,1.1-2.09,1.24-4.54,1.24-6.64,0-1.21-.71-2.59-1.1-4.05-1.1-4.05,0-7.35,3.3-7.35,7.35,0,.53,.07,1.03,.18,1.56-.04,.43-.18,.85-.18,1.31,0,8.16,6.6,14.76,14.76,14.76s14.76-6.6,14.76-14.76c0-.67-.18-1.28-.25-1.92h-.04Z"/><path class="cls-15" d="M114.62,262.38c5.18,0,10.11,1.17,14.55,3.23v-.21c.04-.32,.11-.64,.11-.96,0-4.05-3.3-7.35-7.35-7.35-1.42,0-2.8,.39-3.97,1.1-2.09,1.24-4.54,1.24-6.64,0-1.21-.71-2.59-1.1-4.05-1.1-4.05,0-7.35,3.3-7.35,7.35,0,.43,.07,.82,.14,1.21,4.44-2.09,9.4-3.26,14.62-3.26h-.07Z"/><path class="cls-9" d="M127.32,271.11c0,2.24-1.81,4.05-4.05,4.05s-4.05-1.81-4.05-4.05,1.81-4.05,4.05-4.05,4.05,1.81,4.05,4.05Z"/><path class="cls-14" d="M125.51,270.97c0,1.7-1.38,3.09-3.09,3.09s-3.09-1.38-3.09-3.09,1.38-3.09,3.09-3.09,3.09,1.38,3.09,3.09Z"/><path class="cls-9" d="M101.6,271.11c0,2.24,1.81,4.05,4.05,4.05s4.05-1.81,4.05-4.05-1.81-4.05-4.05-4.05-4.05,1.81-4.05,4.05Z"/><circle class="cls-14" cx="106.53" cy="270.97" r="3.09"/><path class="cls-12" d="M119.62,260.57c0,.71-.57,1.28-1.28,1.28s-1.28-.57-1.28-1.28,.57-1.28,1.28-1.28,1.28,.57,1.28,1.28Z"/><path class="cls-12" d="M121.08,259.29h2.98c.46,0,.82,.35,.82,.82v.71c0,.46-.35,.82-.82,.82h-2.98c-.46,0-.82-.35-.82-.82v-.71c0-.46,.35-.82,.82-.82Z"/></g><g><path class="cls-9" d="M146.8,218.17c-3.41,0-6.6-1.31-9.05-3.69-.32-.32-.5-.78-.46-1.24,.82-8.41,7.77-14.73,16.18-14.73,1.38,0,2.77,.21,4.36,.67,.46,.14,.82,.46,.99,.89,.67,1.6,1.03,3.3,1.03,5.07,0,7.2-5.86,13.06-13.06,13.06v-.04Z"/><path class="cls-17" d="M138.39,212.77c2.06,2.02,4.9,3.26,8.02,3.26,6.39,0,11.53-5.18,11.53-11.53,0-1.6-.32-3.09-.89-4.47-1.28-.35-2.59-.6-3.97-.6-7.7,0-13.95,5.86-14.66,13.38l-.04-.04Z"/><circle class="cls-16" cx="148.47" cy="207.98" r="6.74"/><circle class="cls-2" cx="148.37" cy="207.91" r="2.87"/><path class="cls-9" d="M153.05,199.39c-7.7,0-13.95,5.86-14.66,13.38,8.48-8.8,18.63-12.77,18.63-12.77-1.28-.35-2.59-.6-3.97-.6h0Z"/><rect class="cls-12" x="148.61" y="205.6" width="4.93" height="2.13" rx=".75" ry=".75"/></g><g><path class="cls-9" d="M84.28,218.17c3.41,0,6.6-1.31,9.05-3.69,.32-.32,.5-.78,.46-1.24-.82-8.41-7.77-14.73-16.18-14.73-1.38,0-2.77,.21-4.36,.67-.46,.14-.82,.46-.99,.89-.67,1.6-1.03,3.3-1.03,5.07,0,7.2,5.86,13.06,13.06,13.06v-.04Z"/><path class="cls-17" d="M92.69,212.77c-2.06,2.02-4.9,3.26-8.02,3.26-6.39,0-11.53-5.18-11.53-11.53,0-1.6,.32-3.09,.89-4.47,1.28-.35,2.59-.6,3.97-.6,7.7,0,13.95,5.86,14.66,13.38l.04-.04Z"/><path class="cls-16" d="M75.87,207.98c0,3.73,3.02,6.74,6.74,6.74s6.74-3.02,6.74-6.74-3.02-6.74-6.74-6.74-6.74,3.02-6.74,6.74Z"/><circle class="cls-2" cx="82.72" cy="207.91" r="2.87"/><path class="cls-9" d="M78.03,199.39c7.7,0,13.95,5.86,14.66,13.38-8.48-8.8-18.63-12.77-18.63-12.77,1.28-.35,2.59-.6,3.97-.6h0Z"/><rect class="cls-12" x="82.61" y="205.64" width="4.93" height="2.13" rx=".75" ry=".75"/></g><path class="cls-4" d="M140.95,113.2c-1.63,.32-3.23,.71-4.79,1.21-14.05,4.61-29.13,3.48-43.47-.25-1.14-.28-2.31-.53-3.51-.75,8.69,5.54,16.04,13.02,21.43,21.86,3.3,5.39,11.21,5.25,13.91-.46,3.97-8.3,9.58-15.65,16.39-21.65l.04,.04Z"/></svg>