<?xml version="1.0" encoding="UTF-8"?><svg id="_이어_1" xmlns="http://www.w3.org/2000/svg" xmlns:xlink="http://www.w3.org/1999/xlink" viewBox="0 0 933.67 548.24"><defs><style>.cls-1{fill:none;}.cls-2{clip-path:url(#clippath);}.cls-3{fill:#696f82;}.cls-4{fill:#f5e7d5;}.cls-5{fill:#fff;}.cls-6{fill:#656b7d;}.cls-7{fill:#656e7d;}.cls-8{fill:#b3b3b3;}.cls-9{fill:#30333b;}.cls-10{fill:#d6c9ba;}.cls-11{fill:#6d7787;}.cls-12{fill:gray;}.cls-13{fill:#595e6e;}.cls-14{fill:#555a69;}.cls-15{fill:#38342f;}.cls-16{fill:#3d404a;}.cls-17{fill:#616a78;}.cls-18{fill:#494d59;}.cls-19{fill:#616978;}.cls-20{fill:#5d6473;}</style><clipPath id="clippath"><path class="cls-1" d="M211.47,130.12h0c4.03,2.27,12.1,1.77,17.4-2.77,.76-1.26,1.26-2.77,.76-4.03-4.54-1.01-13.36-2.27-18.16-1.51,0,0-1.51,3.53-1.01,6.81,.25,.25,.76,1.01,1.01,1.51Z"/></clipPath></defs><g><path class="cls-14" d="M335.28,196.19s8.07,172.48-21.43,277.13c-3.53,12.36-9.83,23.45-18.66,33.03-15.13,16.39-26.23,39.59-26.23,39.59l78.68-1.77c6.56-.25,12.86-3.78,16.14-9.58l15.89-28.24c4.54-7.82,8.07-16.39,10.84-24.96l51.95-169.71-21.94-66.82-85.23-48.67h0Z"/><path class="cls-14" d="M741.02,311.93l46.15,35.81c19.92,15.38,31.77,39.09,32.03,64.3l.76,61.02c0,12.36-4.03,24.21-11.6,33.79-4.79,6.05-9.58,11.85-13.36,18.41l-12.36,20.43,91.54-.76,17.4-31.77c5.55-10.34,8.57-21.94,8.83-33.79l2.52-135.92-90.28-169.96-71.62,138.44h0Z"/><polygon class="cls-14" points="825.75 126.08 922.83 314.45 818.18 171.98 825.75 126.08"/><path class="cls-20" d="M711.51,298.56h-244.35c-66.57,0-120.54-53.96-120.54-120.54V27.23h349.75c34.29,0,67.08,14.37,90.02,39.84l25.72,28.24c12.36,13.36,19.16,31.02,19.16,49.17v34.55c-.25,66.07-53.71,119.53-119.78,119.53h0Z"/><circle class="cls-19" cx="715.8" cy="173.74" r="111.96"/><path class="cls-17" d="M677.47,511.14c6.81-85.23,49.68-160.13,113.22-209.8l-126.34-50.43c1.01,10.84,1.51,21.94,1.51,33.03,0,87-32.28,166.68-85.23,227.45-2.77,3.28-3.28,8.07-.76,11.6h0c14.37,21.43,41.36,30.51,65.82,22.19l7.06-2.27c13.87-4.79,23.7-17.15,24.71-31.77Z"/><path class="cls-11" d="M635.11,511.39c-10.84-3.53-22.44,2.52-25.97,13.36l-5.8,18.16c12.86,6.05,27.99,7.06,42.36,2.27h.25l2.52-7.82c3.53-10.84-2.52-22.44-13.36-25.97h0Z"/><path class="cls-17" d="M806.08,512.91h0c-.76-.25-1.77-.25-2.52-.5-3.28,4.29-6.3,8.32-9.08,12.86l-12.36,20.43,35.3-.25,2.02-6.56c3.53-11.1-2.52-22.69-13.36-25.97h0Z"/><path class="cls-17" d="M276.78,545.69l26.23-.5,2.02-6.3c3.53-10.84-2.52-22.44-13.36-25.97h0c-.5-.25-1.01-.25-1.77-.25-11.85,14.88-20.17,32.28-20.68,33.03h7.56Z"/><path class="cls-11" d="M579.88,522.99c5.04,7.56,11.6,13.36,18.91,17.65l6.3-20.17c3.28-10.09-2.02-20.93-11.6-24.96-4.29,5.55-8.57,10.84-13.11,15.89-2.52,3.28-2.77,8.07-.5,11.6Z"/><circle class="cls-7" cx="744.55" cy="231.24" r="83.97"/><path class="cls-9" d="M923.08,275.11c5.8,9.58,10.59,55.98,10.59,55.98,0,0-39.34-24.71-45.14-34.29-5.8-9.58-3.03-22.19,6.56-27.99,9.33-6.3,21.94-3.28,27.99,6.3h0Z"/><path class="cls-17" d="M423.04,281.92l37.07,171.47c2.02,9.08,7.56,16.9,15.38,21.94l84.48,53.46c6.3,4.03,14.37,1.26,17.4-5.3,8.83-18.91,5.3-47.16,2.27-63.29-1.26-7.06-7.82-11.85-14.88-11.35l-5.04,.5c-11.6,.76-22.44-5.55-27.23-16.14l-.76-1.51c-2.77-6.3-3.28-13.36-1.01-20.17l40.35-121.29-148.02-8.32h0Z"/><circle class="cls-19" cx="491.88" cy="243.59" r="82.96"/><circle class="cls-7" cx="517.09" cy="275.37" r="61.53"/><path class="cls-11" d="M563.24,508.11c-8.83-2.77-17.9,1.01-22.95,8.07l19.67,12.36c6.3,4.03,14.37,1.26,17.4-5.3,1.51-3.03,2.52-6.56,3.28-10.09l-17.4-5.04h0Z"/><path class="cls-11" d="M548.11,478.86c-3.28,10.84,2.77,22.44,13.87,25.72l19.16,5.8c2.77-14.37,1.51-30.76-.5-43.37l-6.81-2.02c-10.84-3.03-22.44,3.03-25.72,13.87h0Z"/></g><circle class="cls-20" cx="420.51" cy="122.3" r="122.3"/><circle class="cls-16" cx="254.08" cy="47.41" r="40.09"/><polygon class="cls-14" points="259.63 35.81 365.29 20.93 336.8 211.82 287.12 200.72 259.63 35.81"/><circle class="cls-14" cx="246.52" cy="125.83" r="91.28"/><path class="cls-10" d="M100.52,219.13c10.09,1.01,20.43,1.26,31.02,1.26,22.19,0,43.62-2.02,64.55-6.05,7.06-1.26,11.6-8.32,9.83-15.38h0c-1.77-7.56-9.83-11.35-16.9-8.32-27.74,11.6-56.99,19.67-87.75,23.7h0c-3.03,0-3.53,3.78-.76,4.79h0Z"/><path class="cls-14" d="M245.76,209.05c-75.65,49.68-97.08,95.82-131.38,167.94-34.29,72.12-75.65,104.14-75.65,104.14l-24.21-21.43c66.07-68.34,108.43-159.87,113.73-261.24l.25-2.02c5.55-36.82,17.9-70.86,35.81-101.88l81.45,114.48Z"/><circle class="cls-13" cx="230.63" cy="119.27" r="31.77"/><circle class="cls-13" cx="226.6" cy="188.87" r="38.08"/><g><path class="cls-15" d="M207.18,130.12l3.53-1.51c-.5-3.53,1.01-6.81,1.01-6.81,5.8-.76,17.4,1.01,20.43,2.02-4.79,7.82-15.63,9.08-20.43,6.3-2.27,.25-4.54,0-4.54,0h0Z"/><g><path class="cls-5" d="M211.47,130.12h0c4.03,2.27,12.1,1.77,17.4-2.77,.76-1.26,1.26-2.77,.76-4.03-4.54-1.01-13.36-2.27-18.16-1.51,0,0-1.51,3.53-1.01,6.81,.25,.25,.76,1.01,1.01,1.51Z"/><g class="cls-2"><path class="cls-15" d="M213.23,118.27l9.83-1.01c1.77-.25,3.53,1.26,3.53,3.03l.76,8.57c.25,1.77-1.26,3.53-3.03,3.53l-9.83,1.01c-1.77,.25-3.53-1.26-3.53-3.03l-.76-8.57c-.25-1.77,1.26-3.53,3.03-3.53Z"/></g></g><path class="cls-8" d="M211.47,121.54s-1.51,3.53-1.01,6.81c9.33-5.3,21.43-4.79,21.43-4.79-2.77-1.01-14.37-2.77-20.43-2.02h0Z"/><path class="cls-12" d="M221.81,125.33l7.31-1.51c.25,0,.76,.25,.76,.5l.25,1.51c0,.25-.25,.76-.5,.76l-7.31,1.51c-.25,0-.76-.25-.76-.5l-.25-1.51c-.25-.5,0-.76,.5-.76Z"/></g><path class="cls-3" d="M242.49,214.85l-23.7,11.35c-8.32,4.03-18.66,.5-22.69-8.07h0c-4.03-8.32-.5-18.66,8.07-22.69l23.7-11.35c8.32-4.03,18.66-.5,22.69,8.07h0c4.03,8.57,.5,18.66-8.07,22.69h0Z"/><path class="cls-4" d="M107.83,234.01c10.09,1.01,20.43,1.26,31.02,1.26,22.19,0,43.62-2.02,64.55-6.05,7.06-1.26,11.6-8.32,9.83-15.38h0c-1.77-7.56-9.83-11.35-16.9-8.32-27.74,11.6-56.99,19.67-87.75,23.7h0c-3.03,0-3.53,4.03-.76,4.79h0Z"/><path class="cls-18" d="M461.11,73.88l-58-45.89c-10.84-10.09-25.22-16.39-41.1-16.39-33.29,0-60.02,26.98-60.02,60.02,0,9.08,2.02,17.65,5.55,25.22l3.53,33.79c4.54,45.14,1.77,90.78-8.57,134.91-2.27,9.58,7.31,17.65,16.39,14.12,67.58-26.23,123.06-76.41,155.84-140.2,11.35-22.19,5.8-49.68-13.62-65.56h0Z"/><path class="cls-16" d="M360.5,37.32c15.89,0,30.51,6.3,41.1,16.39l58,45.89c10.09,8.07,16.39,19.16,18.66,31.02,6.3-20.43,0-43.12-17.15-56.99l-58-45.89c-10.84-10.09-25.22-16.39-41.1-16.39-33.29,0-60.02,26.98-60.02,60.02,0,3.28,.25,6.56,.76,9.58,7.06-24.96,30.26-43.62,57.75-43.62h0Z"/><path class="cls-6" d="M29.15,485.92l-25.72-19.42c-3.78-2.77-4.54-8.07-1.77-11.85h0c2.77-3.78,8.07-4.54,11.85-1.77l25.72,19.42c3.78,2.77,4.54,8.07,1.77,11.85h0c-3.03,4.03-8.32,4.79-11.85,1.77Z"/></svg>